<svg xmlns="http://www.w3.org/2000/svg" width="120" height="108" viewBox="0 0 120 108">
  <g fill="#44F">
    <path d="M24.000043,39 L24.000043,34.125 C16.0512572,34.125 9.60006873,27.573 9.60006873,19.5 C9.60006873,11.427 16.0512572,4.875 24.000043,4.875 C31.9488287,4.875 38.4000172,11.427 38.4000172,19.5 L43.2000086,19.5 C43.2000086,8.736 34.598424,0 24.000043,0 C13.4016619,0 4.80007732,8.736 4.80007732,19.5 C4.80007732,30.264 13.4016619,39 24.000043,39 Z M33.7184256,41.6845 C42.8640092,47.138 45.9296037,59.08825 40.5600133,68.38 L45.9360037,68.38 C47.2896013,65.2795 47.9904,61.92225 47.9936064,58.5325 C48.0032,45.0645 37.2672192,34.14125 24.0128429,34.125 L24.0128429,39 C27.4240368,39 30.7744308,39.9295 33.7184256,41.6845 Z M7.44967258,68.38 C5.76007561,65.481 4.80007732,62.1075 4.80007732,58.5 L4.80007732,58.4025 L4.2667608e-05,58.4025 L4.2667608e-05,58.5 C-0.00631407338,61.90275 0.697684667,65.273 2.06408222,68.38 L7.44967258,68.38 L7.44967258,68.38 Z M14.6496597,19.2465 C14.5120599,24.635 18.6976524,29.11025 24.000043,29.25 C29.1104338,29.12 33.2160265,24.9405 33.3504262,19.7535 C33.488026,14.365 29.2992335,9.88975 24.000043,9.75 C18.8896521,9.88 14.7840595,14.0595 14.6496597,19.2465 Z M28.8000344,19.5065 C28.8000344,22.1975 26.6496382,24.3815 24.000043,24.3815 C21.3440477,24.3815 19.2000515,22.19425 19.2000515,19.5 C19.2000515,16.8025 21.3440477,14.625 24.000043,14.625 C26.6496382,14.625 28.8000344,16.809 28.8000344,19.5 L28.8000344,19.5065 Z" transform="translate(36 34)"/>
    <path d="M30.04,75.275 L27.68,74.675 C10.09,70.23 0,62.685 0,53.98 C0,45.275 10.09,37.73 27.68,33.285 L30.04,32.69 L30.705,35.03 C32.4869103,41.1685625 34.7661206,47.1516986 37.52,52.92 L38.025,53.985 L37.52,55.05 C34.7615278,60.8163331 32.482172,66.7998513 30.705,72.94 L30.04,75.275 L30.04,75.275 Z M26.585,38.75 C13.215,42.505 5.01,48.25 5.01,53.98 C5.01,59.705 13.215,65.45 26.585,69.21 C28.2201224,64.0096581 30.1943544,58.9220857 32.495,53.98 C30.1917208,49.0390373 28.2174207,43.9512893 26.585,38.75 L26.585,38.75 Z M89.96,75.275 L89.295,72.93 C87.5148816,66.7917617 85.2338888,60.8100085 82.475,55.045 L81.97,53.98 L82.475,52.915 C85.2328427,47.1478202 87.513798,41.1644933 89.295,35.025 L89.96,32.685 L92.325,33.28 C109.91,37.725 120,45.27 120,53.98 C120,62.69 109.91,70.23 92.325,74.675 L89.96,75.275 L89.96,75.275 Z M87.505,53.98 C89.905,59.175 91.89,64.28 93.415,69.21 C106.79,65.45 114.99,59.705 114.99,53.98 C114.99,48.25 106.785,42.51 93.415,38.75 C91.7820848,43.9511159 89.8077972,49.0388317 87.505,53.98 Z M26.55,38.725 L25.885,36.39 C20.94,18.96 22.44,6.47 30,2.11 C37.415,-2.17 49.32,2.885 61.795,15.69 L63.495,17.435 L61.795,19.18 C57.3622817,23.7880331 53.3122269,28.7494339 49.685,34.015 L49.01,34.98 L47.835,35.08 C41.4545398,35.5829882 35.1254285,36.6030034 28.91,38.13 L26.55,38.725 Z M36.03,5.575 C34.69,5.575 33.505,5.865 32.505,6.44 C27.535,9.305 26.655,19.265 30.08,32.705 C35.4081818,31.5196583 40.8079623,30.6828844 46.245,30.2 C49.3821215,25.7394143 52.8095348,21.4902236 56.505,17.48 C48.705,9.885 41.32,5.575 36.03,5.575 L36.03,5.575 Z M83.975,107.385 C83.97,107.385 83.97,107.385 83.975,107.385 C76.85,107.385 67.7,102.02 58.205,92.27 L56.505,90.525 L58.205,88.78 C62.6365701,84.1705038 66.6849788,79.2073988 70.31,73.94 L70.985,72.975 L72.155,72.875 C78.5387527,72.3747827 84.8712758,71.3564287 91.09,69.83 L93.45,69.235 L94.12,71.575 C99.055,88.995 97.56,101.49 90,105.845 C88.1636675,106.883292 86.0843321,107.414774 83.975,107.385 L83.975,107.385 Z M63.495,90.48 C71.295,98.075 78.68,102.385 83.97,102.385 L83.975,102.385 C85.31,102.385 86.5,102.095 87.495,101.52 C92.465,98.655 93.35,88.69 89.92,75.25 C84.5904425,76.4369847 79.1888912,77.2737742 73.75,77.755 C70.6166811,82.2186676 67.190833,86.4696591 63.495,90.48 L63.495,90.48 Z M93.45,38.725 L91.09,38.13 C84.8720839,36.5985969 78.5392891,35.5785269 72.155,35.08 L70.985,34.98 L70.31,34.015 C66.6868288,28.7477756 62.6382918,23.7861857 58.205,19.18 L56.505,17.435 L58.205,15.69 C70.675,2.89 82.575,-2.165 90,2.11 C97.56,6.47 99.06,18.96 94.12,36.385 L93.45,38.725 Z M73.75,30.2 C79.46,30.72 84.885,31.565 89.92,32.705 C93.35,19.265 92.465,9.305 87.495,6.44 C82.555,3.585 73.27,7.96 63.495,17.48 C67.1887262,21.4903973 70.6144651,25.739583 73.75,30.2 Z M36.03,107.385 C33.9189779,107.415663 31.8378022,106.884152 30,105.845 C22.44,101.49 20.94,89 25.885,71.575 L26.545,69.235 L28.905,69.83 C34.68,71.285 41.05,72.31 47.83,72.875 L49.005,72.975 L49.675,73.94 C53.3027856,79.2067088 57.3527958,84.1697271 61.785,88.78 L63.485,90.525 L61.785,92.27 C52.295,102.02 43.145,107.385 36.03,107.385 L36.03,107.385 Z M30.08,75.25 C26.65,88.69 27.535,98.655 32.505,101.52 C37.44,104.335 46.72,99.995 56.505,90.48 C52.8110064,86.4667485 49.3836792,82.2159942 46.245,77.755 C40.8077107,77.2741836 35.4077957,76.4373889 30.08,75.25 L30.08,75.25 Z"/>
  </g>
</svg>
