<svg xmlns="http://www.w3.org/2000/svg" width="480" height="428" viewBox="0 0 480 428">
  <g fill="#087BB4">
    <path d="M96.0001718,156 L96.0001718,136.5 C64.2050287,136.5 38.4002749,110.292 38.4002749,78 C38.4002749,45.708 64.2050287,19.5 96.0001718,19.5 C127.795315,19.5 153.600069,45.708 153.600069,78 L172.800034,78 C172.800034,34.944 138.393696,0 96.0001718,0 C53.6066477,0 19.2003093,34.944 19.2003093,78 C19.2003093,121.056 53.6066477,156 96.0001718,156 Z M134.873702,166.738 C171.456037,188.552 183.718415,236.353 162.240053,273.52 L183.744015,273.52 C189.158405,261.118 191.9616,247.689 191.974426,234.13 C192.0128,180.258 149.068877,136.565 96.0513717,136.5 L96.0513717,156 C109.696147,156 123.097723,159.718 134.873702,166.738 Z M29.7986903,273.52 C23.0403024,261.924 19.2003093,248.43 19.2003093,234 L19.2003093,233.61 L0.000170670432,233.61 L0.000170670432,234 C-0.0252562935,247.611 2.79073867,261.092 8.25632888,273.52 L29.7986903,273.52 L29.7986903,273.52 Z M58.5986388,76.986 C58.0482398,98.54 74.7906098,116.441 96.0001718,117 C116.441735,116.48 132.864106,99.762 133.401705,79.014 C133.952104,57.46 117.196934,39.559 96.0001718,39 C75.5586084,39.52 59.1362378,56.238 58.5986388,76.986 Z M115.200137,78.026 C115.200137,88.79 106.598553,97.526 96.0001718,97.526 C85.3761908,97.526 76.8002062,88.777 76.8002062,78 C76.8002062,67.21 85.3761908,58.5 96.0001718,58.5 C106.598553,58.5 115.200137,67.236 115.200137,78 L115.200137,78.026 Z" transform="translate(144 134)"/>
    <path d="M120.16,299.1 L110.72,296.7 C40.36,278.92 0,248.74 0,213.92 C0,179.1 40.36,148.92 110.72,131.14 L120.16,128.76 L122.82,138.12 C129.947641,162.67425 139.064482,186.606794 150.08,209.68 L152.1,213.94 L150.08,218.2 C139.046111,241.265333 129.928688,265.199405 122.82,289.76 L120.16,299.1 L120.16,299.1 Z M106.34,153 C52.86,168.02 20.04,191 20.04,213.92 C20.04,236.82 52.86,259.8 106.34,274.84 C112.88049,254.038633 120.777418,233.688343 129.98,213.92 C120.766883,194.156149 112.869683,173.805157 106.34,153 L106.34,153 Z M359.84,299.1 L357.18,289.72 C350.059527,265.167047 340.935555,241.240034 329.9,218.18 L327.88,213.92 L329.9,209.66 C340.931371,186.591281 350.055192,162.657973 357.18,138.1 L359.84,128.74 L369.3,131.12 C439.64,148.9 480,179.08 480,213.92 C480,248.76 439.64,278.92 369.3,296.7 L359.84,299.1 L359.84,299.1 Z M350.02,213.92 C359.62,234.7 367.56,255.12 373.66,274.84 C427.16,259.8 459.96,236.82 459.96,213.92 C459.96,191 427.14,168.04 373.66,153 C367.128339,173.804464 359.231189,194.155327 350.02,213.92 Z M106.2,152.9 L103.54,143.56 C83.76,73.84 89.76,23.88 120,6.44 C149.66,-10.68 197.28,9.54 247.18,60.76 L253.98,67.74 L247.18,74.72 C229.449127,93.1521325 213.248907,112.997736 198.74,134.06 L196.04,137.92 L191.34,138.32 C165.818159,140.331953 140.501714,144.412014 115.64,150.52 L106.2,152.9 Z M144.12,20.3 C138.76,20.3 134.02,21.46 130.02,23.76 C110.14,35.22 106.62,75.06 120.32,128.82 C141.632727,124.078633 163.231849,120.731538 184.98,118.8 C197.528486,100.957657 211.238139,83.9608944 226.02,67.92 C194.82,37.54 165.28,20.3 144.12,20.3 L144.12,20.3 Z M335.9,427.54 C335.88,427.54 335.88,427.54 335.9,427.54 C307.4,427.54 270.8,406.08 232.82,367.08 L226.02,360.1 L232.82,353.12 C250.54628,334.682015 266.739915,314.829595 281.24,293.76 L283.94,289.9 L288.62,289.5 C314.155011,287.499131 339.485103,283.425715 364.36,277.32 L373.8,274.94 L376.48,284.3 C396.22,353.98 390.24,403.96 360,421.38 C352.65467,425.53317 344.337328,427.659096 335.9,427.54 L335.9,427.54 Z M253.98,359.92 C285.18,390.3 314.72,407.54 335.88,407.54 L335.9,407.54 C341.24,407.54 346,406.38 349.98,404.08 C369.86,392.62 373.4,352.76 359.68,299 C338.36177,303.747939 316.755565,307.095097 295,309.02 C282.466725,326.87467 268.763332,343.878636 253.98,359.92 L253.98,359.92 Z M373.8,152.9 L364.36,150.52 C339.488336,144.394387 314.157156,140.314108 288.62,138.32 L283.94,137.92 L281.24,134.06 C266.747315,112.991102 250.553167,93.1447427 232.82,74.72 L226.02,67.74 L232.82,60.76 C282.7,9.56 330.3,-10.66 360,6.44 C390.24,23.88 396.24,73.84 376.48,143.54 L373.8,152.9 Z M295,118.8 C317.84,120.88 339.54,124.26 359.68,128.82 C373.4,75.06 369.86,35.22 349.98,23.76 C330.22,12.34 293.08,29.84 253.98,67.92 C268.754905,83.9615892 282.45786,100.958332 295,118.8 Z M144.12,427.54 C135.675912,427.662653 127.351209,425.53661 120,421.38 C89.76,403.96 83.76,354 103.54,284.3 L106.18,274.94 L115.62,277.32 C138.72,283.14 164.2,287.24 191.32,289.5 L196.02,289.9 L198.7,293.76 C213.211142,314.826835 229.411183,334.678909 247.14,353.12 L253.94,360.1 L247.14,367.08 C209.18,406.08 172.58,427.54 144.12,427.54 L144.12,427.54 Z M120.32,299 C106.6,352.76 110.14,392.62 130.02,404.08 C149.76,415.34 186.88,397.98 226.02,359.92 C211.244026,343.866994 197.534717,326.863977 184.98,309.02 C163.230843,307.096734 141.631183,303.749555 120.32,299 L120.32,299 Z"/>
  </g>
</svg>
