<svg xmlns="http://www.w3.org/2000/svg" viewBox="0 0 966.62 665.33"><defs><style>.cls-1{fill:#ff6550;}.cls-2{fill:#f7df1e;}</style></defs><title>icons-pack</title><g id="Capa_2" data-name="Capa 2"><path d="M288.88,596.06H173.82c-26-44.4-34.44-73.5-41.3-130.92L122.2,547C44.61,341.87,353.37,1.76,637,224.12c8.86-32.8,4.71-48.13-10.33-72.9,24.22,18.5,34.49,31.87,33.93,72.9C712.35,201.72,739.1,204,783,233.05c-35,4.78-50.06,12.39-63.43,40.17,41.41,19.41,48.28,36.06,48.68,69.92-18.9-27.54-34.23-35.79-69.33-38.68,35.65,66.31,40.12,106.71,20.65,184.48,81.11,21.65,248.16-71,202.08-184.48l31,11.9c1,172.42-129.15,248.71-248.8,231.81l-25.56,47.89h-59c12.86-26.92,17.65-41.86,17.7-68a216.85,216.85,0,0,1-90-79.33c15.16,58,11.84,90.22-11.8,147.29H409.83C407.25,503.59,281.64,522.13,288.88,596.06Z" transform="translate(-26.38 -151.22)"/></g><g id="Capa_5" data-name="Capa 5"><path class="cls-1" d="M59.4,630.82V775.28h-33V630.82Z" transform="translate(-26.38 -151.22)"/><path class="cls-1" d="M78,723.69c0-30.75,23.32-54.49,54.69-54.49,20,0,37.77,10.53,46.64,26.42l-27,15.68c-3.51-7.22-10.94-11.55-20-11.55-13.41,0-23.32,9.7-23.32,23.94s9.91,23.93,23.32,23.93c9.08,0,16.72-4.33,20-11.55l27,15.48c-8.87,16.09-26.41,26.62-46.64,26.62C101.29,778.17,78,754.44,78,723.69Z" transform="translate(-26.38 -151.22)"/><path class="cls-1" d="M184.46,723.69c0-30.75,24.35-54.49,54.69-54.49s54.69,23.74,54.69,54.49-24.35,54.48-54.69,54.48S184.46,754.44,184.46,723.69Zm78.42,0c0-14.66-10.32-24.36-23.73-24.36s-23.73,9.7-23.73,24.36S225.73,748,239.15,748,262.88,738.34,262.88,723.69Z" transform="translate(-26.38 -151.22)"/><path class="cls-1" d="M410.44,711.92v63.36h-31V716.46c0-12.79-8.05-18.78-18-18.78-11.35,0-19.19,6.61-19.19,21.26v56.34H311.38V672.09h30.95v9.7c5.57-7.63,15.89-12.59,29.51-12.59C392.69,669.2,410.44,684.06,410.44,711.92Z" transform="translate(-26.38 -151.22)"/><path class="cls-1" d="M511.76,744.32c0,23.74-20.64,33.85-42.93,33.85-20.63,0-36.32-7.84-44.37-24.56l26.83-15.27c2.69,7.84,8.46,12.17,17.54,12.17,7.43,0,11.15-2.27,11.15-6.39,0-11.35-50.77-5.37-50.77-41.07,0-22.5,19-33.85,40.45-33.85,16.72,0,31.58,7.43,40.24,22.08l-26.41,14.24c-2.89-5.36-7-9.08-13.83-9.08-5.37,0-8.67,2.07-8.67,5.78C461,714,511.76,706.14,511.76,744.32Z" transform="translate(-26.38 -151.22)"/><path class="cls-2" d="M639.29,723.69c0,30.75-22.28,54.48-49.32,54.48-13.83,0-23.94-4.75-30.75-12.59v51h-31V672.09h31v9.7C566,674,576.14,669.2,590,669.2,617,669.2,639.29,692.94,639.29,723.69Zm-30.95,0c0-15.48-10.32-25.18-24.56-25.18s-24.56,9.7-24.56,25.18,10.32,25.17,24.56,25.17S608.34,739.16,608.34,723.69Z" transform="translate(-26.38 -151.22)"/><path class="cls-2" d="M762.7,672.09V775.28h-31v-9.7c-6.81,7.84-16.92,12.59-30.75,12.59-27,0-49.32-23.73-49.32-54.48S674,669.2,701,669.2c13.83,0,23.94,4.75,30.75,12.59v-9.7Zm-31,51.6c0-15.48-10.31-25.18-24.55-25.18s-24.56,9.7-24.56,25.18,10.32,25.17,24.56,25.17S731.74,739.16,731.74,723.69Z" transform="translate(-26.38 -151.22)"/><path class="cls-2" d="M780.24,723.69c0-30.75,23.32-54.49,54.68-54.49,20,0,37.77,10.53,46.65,26.42l-27,15.68c-3.51-7.22-10.94-11.55-20-11.55-13.41,0-23.32,9.7-23.32,23.94s9.91,23.93,23.32,23.93c9.08,0,16.72-4.33,20-11.55l27,15.48c-8.88,16.09-26.42,26.62-46.65,26.62C803.56,778.17,780.24,754.44,780.24,723.69Z" transform="translate(-26.38 -151.22)"/><path class="cls-2" d="M957.92,775.28l-33-45.61v45.61h-31V630.82h31v86.47l31-45.2H992l-37.56,51.6L993,775.28Z" transform="translate(-26.38 -151.22)"/></g></svg>